<svg xmlns="http://www.w3.org/2000/svg" width="525" height="309" viewBox="0 0 525 309"><defs><linearGradient id="linear-gradient" x1="-.019" x2=".257" y1=".468" y2=".454" gradientUnits="objectBoundingBox"><stop offset="0" stop-color="#fff" stop-opacity=".278"/><stop offset="1" stop-color="#fff" stop-opacity="0"/></linearGradient><linearGradient id="linear-gradient-2" x1=".975" x2=".5" y1=".37" y2=".389" gradientUnits="objectBoundingBox"><stop offset="0" stop-color="#fff" stop-opacity=".275"/><stop offset="1" stop-color="#fff" stop-opacity="0"/></linearGradient><clipPath id="clip-path"><path id="Rectangle_10886" fill="#fff" d="M0 0h525v309H0z" data-name="Rectangle 10886"/></clipPath></defs><g id="Groupe_23738" data-name="Groupe 23738" transform="translate(-190 -555.524)"><g id="MAP" clip-path="url(#clip-path)" transform="translate(190 555.524)"><g id="Groupe_23715" data-name="Groupe 23715" transform="translate(-139.31 3.912)"><g id="Groupe_23714" stroke="#fff" stroke-width="1" data-name="Groupe 23714"><path id="Tracé_98831" fill="url(#linear-gradient)" d="m1069.709 198.542-18.751-9.138-20.1.9a2.9 2.9 0 0 1-2.756-2.08 2.83 2.83 0 0 0-2.275-1.893l-13.433-1.632-.251-1.907-9.565-1.279a7.25 7.25 0 0 0-7.255 3.852l-7-1.223a1.45 1.45 0 0 0-1.491.734l-.569.976a1.414 1.414 0 0 1-2.113.459l-2.716-2.09a1.7 1.7 0 0 1-.635-1.449l.12-2.061a1.636 1.636 0 0 0-1.1-1.689l-5-1.488a1.47 1.47 0 0 0-1.837 1.178 1.54 1.54 0 0 1-1.388 1.279l-24.432 1.209a1.956 1.956 0 0 1-1.949-1.586 2.175 2.175 0 0 1 1.123-2.478l12.951-5.928a4.39 4.39 0 0 0-2.984-2.971l-12.4-3.3a3.86 3.86 0 0 0-2.561.2l-21.442 9.446-7.984 5.227-4.321 1.544a6.91 6.91 0 0 0-4.076 6.171 18.24 18.24 0 0 1-4.893 11.649l-1.139 1.067 2.236-4.321-.353-10.742a4.4 4.4 0 0 0-1.685-3.482 3.464 3.464 0 0 0-4.951 1.006l-1.486 2.229a4.37 4.37 0 0 0-.519 3.674l1.737 5.665-7.238-3.149a4.77 4.77 0 0 0-5.275 1.016 4.87 4.87 0 0 1-3.313 1.411l-6.923.115a4.76 4.76 0 0 0-2.309.649l-20.191 11.695a2.347 2.347 0 0 1-3.1-.7l-3.755-5.083a.846.846 0 0 1 .813-1.368l5.6 1.7a1.28 1.28 0 0 0 1.11-.182l3.473-2.419a1.6 1.6 0 0 0-.173-2.677l-17.623-8.7a4.07 4.07 0 0 0-2.893-.283l-11.512 3.167a4.46 4.46 0 0 0-2.578 1.969l-9.3 14.871-7.227 3.608a3.2 3.2 0 0 0-1.528 3.7l1.017 3.727a2.732 2.732 0 0 0 4.178 1.732l.411-.284a2.663 2.663 0 0 1 3.761.78l2.59 3.823a2.12 2.12 0 0 0 3.7-.214l3.023-5.612a3.21 3.21 0 0 0-.1-3.187l-1.471-2.351 7.584-11.324a1.65 1.65 0 0 1 1.692-.738 1.946 1.946 0 0 1 .958 3.132L822.606 207a2.7 2.7 0 0 0-.544 2.255l.854 4.156a2.31 2.31 0 0 0 2.568 1.937l6.073-.984c.582-.094 2.055.5 1.986 1.354-.108 1.326-2.724 1.941-4.474 2.206a3.48 3.48 0 0 0-2.467 1.737l-3.284 5.609a3.8 3.8 0 0 1-2.451 1.833l-9.393 2.047a1.93 1.93 0 0 1-2.074-.976l-3.356-5.806a.7.7 0 0 0-1.037-.24l-2.094 1.541a.86.86 0 0 0-.295.921l1.487 5.206a1.4 1.4 0 0 1-.934 1.77l-3.37.807-.469.23-11.182 8.858-.526.26-1.835.443a1.62 1.62 0 0 0-.671 2.664l2.98 3.093a1.66 1.66 0 0 1 .429 1.37l-.527 3.168c-.105.765-.7.657-1.408.657h-9.98c-.788 0-1.438 2.051-1.438 2.916v7.363a1.59 1.59 0 0 0 .822 1.415l4.141 2.155a1.32 1.32 0 0 0 .875.125l5.913-1.226a1.4 1.4 0 0 0 .753-.442l2.516-2.818a1.6 1.6 0 0 0 .344-.634l.519-1.844a5.25 5.25 0 0 1 1.419-2.386l2.116-2.687c.857-.813 1.952-1.937 3.083-1.937h1.225c1.006 0 1.985.321 2.794-.334l1.081-.536a1.78 1.78 0 0 1 2.256.168l7.07 5.8a3.134 3.134 0 0 1 1.468 3.642l-.261.518a.84.84 0 0 0 .26 1.079.677.677 0 0 0 .971-.28l.722-1.2a2.07 2.07 0 0 0 .084-1.946l-.565-1.166.636-.462 1.062.861a.455.455 0 0 0 .674-.111.57.57 0 0 0-.1-.74l-1.162-.944-6.737-6.3a1.116 1.116 0 0 1-.054-1.5l.692-.8a.88.88 0 0 1 1.282-.077l7.1 6.563a2.4 2.4 0 0 1 .747 1.555l.135 1.483a2.46 2.46 0 0 0 .464 1.238l3.291 4.465a1.454 1.454 0 0 0 2.257.169 1.82 1.82 0 0 0 .137-2.318l-.6-.81a1.356 1.356 0 0 1 .17-1.8l1.437-1.266a1.07 1.07 0 0 1 1.082-.216l1.146.413a1.06 1.06 0 0 0 .824-.045s2.307-.963 2.468-1.909a1.17 1.17 0 0 0-.418-1.066.9.9 0 0 1-.056-.947l4.057-7.375a1.05 1.05 0 0 1 1.437-.456l13.794 7.578a1.27 1.27 0 0 1 .5 1.618l-.315.71a1.075 1.075 0 0 1-1.239.65l-9.352-2.377a1.03 1.03 0 0 0-.939.236l-1.93 1.7a1.05 1.05 0 0 1-.631.264l-3.557.212-3.632 1.873a1.14 1.14 0 0 0-.508 1.376l1.516 4.423a2.43 2.43 0 0 0 2.023 1.689l6.077.588a2.2 2.2 0 0 0 .823-.079l2.277-.667a.925.925 0 0 1 1.065 1.208l-1.847 6.742a1.61 1.61 0 0 1-1.548 1.24l-3.872-.081a1.5 1.5 0 0 0-.686.156l-1.228.614a1.45 1.45 0 0 1-1.076.094l-9.964-3.018a1.79 1.79 0 0 0-2.125 1l-.687 1.411a1.777 1.777 0 0 1-2.412.887l-10.61-5.405a2.02 2.02 0 0 1-1.041-1.468l-.4-2.323a1.7 1.7 0 0 0-1.255-1.4l-3.634-.831a1.5 1.5 0 0 0-.765.03L788 268.7a.9.9 0 0 1-.441.022l-4.961-1.028a.92.92 0 0 0-.927.373l-10.521 14.218a11 11 0 0 0-1.85 4.027l-2.87 12.213a12 12 0 0 0-.215 1.2l-.42 3.337a11.24 11.24 0 0 0 2.714 8.911l7.939 8.757a3.92 3.92 0 0 0 3.266 1.314l7.2-.675 7.569-1.782a3.91 3.91 0 0 1 3.989 1.48l.085.109a3.3 3.3 0 0 0 2.058 1.255l2.439.408a1.877 1.877 0 0 1 1.43 2.216l-.921 5.378a2.06 2.06 0 0 0 .127 1.137l6.158 14.746a6.75 6.75 0 0 1 .148 4.762l-1.727 5.02a6.75 6.75 0 0 0 .058 4.535l9.2 24.581a4.57 4.57 0 0 0 4.8 3.1l4.615-.594a4.52 4.52 0 0 0 3.07-1.876l7.526-10.385a4.3 4.3 0 0 0 .638-1.317l.294-1.023a4.08 4.08 0 0 1 1.484-2.171 4.29 4.29 0 0 0 1.574-4.275l-.452-2.294a4.33 4.33 0 0 1 1.309-4.064l4.647-4.1a6.96 6.96 0 0 0 2.111-6.5l-1.53-7.954a7.07 7.07 0 0 1 1.33-5.675l15.045-19.123a1.9 1.9 0 0 0 .361-.794l.739-3.743a1.72 1.72 0 0 0-1.916-2.141l-6.758 1.487a1.9 1.9 0 0 1-1.327-.207 1.17 1.17 0 0 1-.789-.607l-14.5-27.6a1.374 1.374 0 0 1 .431-1.772 1.13 1.13 0 0 1 1.613.475l12.058 22.967a4.015 4.015 0 0 0 5.294.716l18.136-12.192a2.08 2.08 0 0 0 .3-3.094l-3.452-3.606c-.573-.6.685-5.709 0-5.273-.688-4.488.033-5.267-.541-6.2l1.558-5.6a2.12 2.12 0 0 1 .566-2.828 1.68 1.68 0 0 1 1.869-.009v15.114c1.4.91.551 4.289 2.173 4.351l8.109.3a4.3 4.3 0 0 1 2.814 1.225l7.03 6.78a5 5 0 0 1 1.283 2.1l4.776 15.144c.657 2.084 2.664 2.947 4.253 1.6a3.04 3.04 0 0 0 1.034-2.01l.582-5.6a6.45 6.45 0 0 1 2.271-4.337l8.365-6.843a5.22 5.22 0 0 1 7.648 1.077l5.755 7.88a5.23 5.23 0 0 1 .928 3.76l-.8 5.991a4.1 4.1 0 0 0 .418 2.431l4.672 8.961a1.28 1.28 0 0 0 2.424-.656l.083-2.409a1.83 1.83 0 0 0-.328-1.118l-3.768-5.337a4.09 4.09 0 0 1-.5-3.646l.783-2.294a1.443 1.443 0 0 1 2.529-.511l3.781 4.712a2.008 2.008 0 0 0 3.269-.1l3.987-5.585a2.53 2.53 0 0 0 .071-2.783l-3.725-5.858a3.3 3.3 0 0 1 .559-4.19l2.506-2.182 7.144-1.209a11.25 11.25 0 0 0 7.1-4.454l4.629-6.206a7.45 7.45 0 0 0 .779-7.413l-4.3-9.612a3.93 3.93 0 0 1 .323-3.933 2.93 2.93 0 0 1 4.752.025l7.7 10.159a4.494 4.494 0 0 0 2.069-5.321l-.4-1.279a4.53 4.53 0 0 1 1.824-5.184l6.807-4.137a4.34 4.34 0 0 0 1.725-2.035l7.716-18.3c.964-2.288-.122-4.16-2.416-4.16l-2.29-.709a1.737 1.737 0 0 1-.527-2.919l10.616-9.184a1.42 1.42 0 0 1 1.137-.338l10.341 1.468a8.48 8.48 0 0 0 6.618-1.921l3.014-2.492a2.86 2.86 0 0 1 2.956-.42 2.79 2.79 0 0 0 2.863-.446l3.959-3.248.463 1.844-11.025 11.234a7.6 7.6 0 0 0-1.949 6.7l.607 3.211a1.978 1.978 0 0 0 3.474 1.074l6.468-7.589a2.4 2.4 0 0 0 .375-2.431l-1.564-3.884 10.685-4.7 1.34 1.258 12.747-6.726a4.09 4.09 0 0 1 2.515-5.107l4.049-1.218a4.1 4.1 0 0 1 3.168.344l1.235.68a2.783 2.783 0 0 0 3.9-1.449 3.376 3.376 0 0 0-1.53-4.34Z" data-name="Tracé 98831" transform="translate(-208.164 -141.261)"/><path id="Tracé_98832" fill="url(#linear-gradient-2)" d="m1069.709 198.542-18.751-9.138-20.1.9a2.9 2.9 0 0 1-2.756-2.08 2.83 2.83 0 0 0-2.275-1.893l-13.433-1.632-.251-1.907-9.565-1.279a7.25 7.25 0 0 0-7.255 3.852l-7-1.223a1.45 1.45 0 0 0-1.491.734l-.569.976a1.414 1.414 0 0 1-2.113.459l-2.716-2.09a1.7 1.7 0 0 1-.635-1.449l.12-2.061a1.636 1.636 0 0 0-1.1-1.689l-5-1.488a1.47 1.47 0 0 0-1.837 1.178 1.54 1.54 0 0 1-1.388 1.279l-24.432 1.209a1.956 1.956 0 0 1-1.949-1.586 2.175 2.175 0 0 1 1.123-2.478l12.951-5.928a4.39 4.39 0 0 0-2.984-2.971l-12.4-3.3a3.86 3.86 0 0 0-2.561.2l-21.442 9.446-7.984 5.227-4.321 1.544a6.91 6.91 0 0 0-4.076 6.171 18.24 18.24 0 0 1-4.893 11.649l-1.139 1.067 2.236-4.321-.353-10.742a4.4 4.4 0 0 0-1.685-3.482 3.464 3.464 0 0 0-4.951 1.006l-1.486 2.229a4.37 4.37 0 0 0-.519 3.674l1.737 5.665-7.238-3.149a4.77 4.77 0 0 0-5.275 1.016 4.87 4.87 0 0 1-3.313 1.411l-6.923.115a4.76 4.76 0 0 0-2.309.649l-20.191 11.695a2.347 2.347 0 0 1-3.1-.7l-3.755-5.083a.846.846 0 0 1 .813-1.368l5.6 1.7a1.28 1.28 0 0 0 1.11-.182l3.473-2.419a1.6 1.6 0 0 0-.173-2.677l-17.623-8.7a4.07 4.07 0 0 0-2.893-.283l-11.512 3.167a4.46 4.46 0 0 0-2.578 1.969l-9.3 14.871-7.227 3.608a3.2 3.2 0 0 0-1.528 3.7l1.017 3.727a2.732 2.732 0 0 0 4.178 1.732l.411-.284a2.663 2.663 0 0 1 3.761.78l2.59 3.823a2.12 2.12 0 0 0 3.7-.214l3.023-5.612a3.21 3.21 0 0 0-.1-3.187l-1.471-2.351 7.584-11.324a1.65 1.65 0 0 1 1.692-.738 1.946 1.946 0 0 1 .958 3.132L822.606 207a2.7 2.7 0 0 0-.544 2.255l.854 4.156a2.31 2.31 0 0 0 2.568 1.937l6.073-.984c.582-.094 2.055.5 1.986 1.354-.108 1.326-2.724 1.941-4.474 2.206a3.48 3.48 0 0 0-2.467 1.737l-3.284 5.609a3.8 3.8 0 0 1-2.451 1.833l-9.393 2.047a1.93 1.93 0 0 1-2.074-.976l-3.356-5.806a.7.7 0 0 0-1.037-.24l-2.094 1.541a.86.86 0 0 0-.295.921l1.487 5.206a1.4 1.4 0 0 1-.934 1.77l-3.37.807-.469.23-11.182 8.858-.526.26-1.835.443a1.62 1.62 0 0 0-.671 2.664l2.98 3.093a1.66 1.66 0 0 1 .429 1.37l-.527 3.168c-.105.765-.7.657-1.408.657h-9.98c-.788 0-1.438 2.051-1.438 2.916v7.363a1.59 1.59 0 0 0 .822 1.415l4.141 2.155a1.32 1.32 0 0 0 .875.125l5.913-1.226a1.4 1.4 0 0 0 .753-.442l2.516-2.818a1.6 1.6 0 0 0 .344-.634l.519-1.844a5.25 5.25 0 0 1 1.419-2.386l2.116-2.687c.857-.813 1.952-1.937 3.083-1.937h1.225c1.006 0 1.985.321 2.794-.334l1.081-.536a1.78 1.78 0 0 1 2.256.168l7.07 5.8a3.134 3.134 0 0 1 1.468 3.642l-.261.518a.84.84 0 0 0 .26 1.079.677.677 0 0 0 .971-.28l.722-1.2a2.07 2.07 0 0 0 .084-1.946l-.565-1.166.636-.462 1.062.861a.455.455 0 0 0 .674-.111.57.57 0 0 0-.1-.74l-1.162-.944-6.737-6.3a1.116 1.116 0 0 1-.054-1.5l.692-.8a.88.88 0 0 1 1.282-.077l7.1 6.563a2.4 2.4 0 0 1 .747 1.555l.135 1.483a2.46 2.46 0 0 0 .464 1.238l3.291 4.465a1.454 1.454 0 0 0 2.257.169 1.82 1.82 0 0 0 .137-2.318l-.6-.81a1.356 1.356 0 0 1 .17-1.8l1.437-1.266a1.07 1.07 0 0 1 1.082-.216l1.146.413a1.06 1.06 0 0 0 .824-.045s2.307-.963 2.468-1.909a1.17 1.17 0 0 0-.418-1.066.9.9 0 0 1-.056-.947l4.057-7.375a1.05 1.05 0 0 1 1.437-.456l13.794 7.578a1.27 1.27 0 0 1 .5 1.618l-.315.71a1.075 1.075 0 0 1-1.239.65l-9.352-2.377a1.03 1.03 0 0 0-.939.236l-1.93 1.7a1.05 1.05 0 0 1-.631.264l-3.557.212-3.632 1.873a1.14 1.14 0 0 0-.508 1.376l1.516 4.423a2.43 2.43 0 0 0 2.023 1.689l6.077.588a2.2 2.2 0 0 0 .823-.079l2.277-.667a.925.925 0 0 1 1.065 1.208l-1.847 6.742a1.61 1.61 0 0 1-1.548 1.24l-3.872-.081a1.5 1.5 0 0 0-.686.156l-1.228.614a1.45 1.45 0 0 1-1.076.094l-9.964-3.018a1.79 1.79 0 0 0-2.125 1l-.687 1.411a1.777 1.777 0 0 1-2.412.887l-10.61-5.405a2.02 2.02 0 0 1-1.041-1.468l-.4-2.323a1.7 1.7 0 0 0-1.255-1.4l-3.634-.831a1.5 1.5 0 0 0-.765.03L788 268.7a.9.9 0 0 1-.441.022l-4.961-1.028a.92.92 0 0 0-.927.373l-10.521 14.218a11 11 0 0 0-1.85 4.027l-2.87 12.213a12 12 0 0 0-.215 1.2l-.42 3.337a11.24 11.24 0 0 0 2.714 8.911l7.939 8.757a3.92 3.92 0 0 0 3.266 1.314l7.2-.675 7.569-1.782a3.91 3.91 0 0 1 3.989 1.48l.085.109a3.3 3.3 0 0 0 2.058 1.255l2.439.408a1.877 1.877 0 0 1 1.43 2.216l-.921 5.378a2.06 2.06 0 0 0 .127 1.137l6.158 14.746a6.75 6.75 0 0 1 .148 4.762l-1.727 5.02a6.75 6.75 0 0 0 .058 4.535l9.2 24.581a4.57 4.57 0 0 0 4.8 3.1l4.615-.594a4.52 4.52 0 0 0 3.07-1.876l7.526-10.385a4.3 4.3 0 0 0 .638-1.317l.294-1.023a4.08 4.08 0 0 1 1.484-2.171 4.29 4.29 0 0 0 1.574-4.275l-.452-2.294a4.33 4.33 0 0 1 1.309-4.064l4.647-4.1a6.96 6.96 0 0 0 2.111-6.5l-1.53-7.954a7.07 7.07 0 0 1 1.33-5.675l15.045-19.123a1.9 1.9 0 0 0 .361-.794l.739-3.743a1.72 1.72 0 0 0-1.916-2.141l-6.758 1.487a1.9 1.9 0 0 1-1.327-.207 1.17 1.17 0 0 1-.789-.607l-14.5-27.6a1.374 1.374 0 0 1 .431-1.772 1.13 1.13 0 0 1 1.613.475l12.058 22.967a4.015 4.015 0 0 0 5.294.716l18.136-12.192a2.08 2.08 0 0 0 .3-3.094l-3.452-3.606a1.66 1.66 0 0 0-2.122-.276L869 288.521a1.85 1.85 0 0 1-2.6-.659l-4.328-7.066a2.12 2.12 0 0 1 .566-2.828 1.68 1.68 0 0 1 1.87-.009l10.7 6.967a9.04 9.04 0 0 0 4.6 1.48l8.109.3a4.3 4.3 0 0 1 2.814 1.225l7.03 6.78a5 5 0 0 1 1.283 2.1l4.776 15.144c.657 2.084 2.664 2.947 4.253 1.6a3.04 3.04 0 0 0 1.034-2.01l.582-5.6a6.45 6.45 0 0 1 2.271-4.337l8.365-6.843a5.22 5.22 0 0 1 7.648 1.077l5.755 7.88a5.23 5.23 0 0 1 .928 3.76l-.8 5.991a4.1 4.1 0 0 0 .418 2.431l4.672 8.961a1.28 1.28 0 0 0 2.424-.656l.083-2.409a1.83 1.83 0 0 0-.328-1.118l-3.768-5.337a4.09 4.09 0 0 1-.5-3.646l.783-2.294a1.443 1.443 0 0 1 2.529-.511l3.781 4.712a2.008 2.008 0 0 0 3.269-.1l3.987-5.585a2.53 2.53 0 0 0 .071-2.783l-3.725-5.858a3.3 3.3 0 0 1 .559-4.19l2.506-2.182 7.144-1.209a11.25 11.25 0 0 0 7.1-4.454l4.629-6.206a7.45 7.45 0 0 0 .779-7.413l-4.3-9.612a3.93 3.93 0 0 1 .323-3.933 2.93 2.93 0 0 1 4.752.025l7.7 10.159a4.494 4.494 0 0 0 2.069-5.321l-.4-1.279a4.53 4.53 0 0 1 1.824-5.184l6.807-4.137a4.34 4.34 0 0 0 1.725-2.035l7.716-18.3c.964-2.288-.122-4.16-2.416-4.16l-2.29-.709a1.737 1.737 0 0 1-.527-2.919l10.616-9.184a1.42 1.42 0 0 1 1.132-.337l10.341 1.468a8.48 8.48 0 0 0 6.618-1.921l3.014-2.492a2.86 2.86 0 0 1 2.956-.42 2.79 2.79 0 0 0 2.863-.446l3.959-3.248.463 1.844-11.025 11.234a7.6 7.6 0 0 0-1.949 6.7l.607 3.211a1.978 1.978 0 0 0 3.474 1.074l6.468-7.589a2.4 2.4 0 0 0 .375-2.431l-1.564-3.884 10.685-4.7 1.34 1.258 12.747-6.726a4.09 4.09 0 0 1 2.515-5.107l4.049-1.218a4.1 4.1 0 0 1 3.168.344l1.235.68a2.783 2.783 0 0 0 3.9-1.449 3.376 3.376 0 0 0-1.53-4.34Z" data-name="Tracé 98832" transform="translate(-765.705 -141.261)"/><path id="Tracé_98833" fill="rgba(255,255,255,0.17)" d="M914.106 302.141a2.31 2.31 0 0 1 1.76.842l9.281 10.957a2.82 2.82 0 0 1 .611 2.243l-.105.68a2.36 2.36 0 0 1-3.77 1.7L917.354 315a2.6 2.6 0 0 1-.63-.734l-4.648-8.068a2.658 2.658 0 0 1 2.03-4.057Z" data-name="Tracé 98833" transform="translate(-187.54 -121.486)"/><path id="Tracé_98834" fill="rgba(255,255,255,0.17)" d="M914.106 302.141a2.31 2.31 0 0 1 1.76.842l9.281 10.957a2.82 2.82 0 0 1 .611 2.243l-.105.68a2.36 2.36 0 0 1-3.77 1.7L917.354 315a2.6 2.6 0 0 1-.63-.734l-4.648-8.068a2.658 2.658 0 0 1 2.03-4.057Z" data-name="Tracé 98834" transform="translate(-745.08 -121.486)"/><path id="Tracé_98835" fill="rgba(255,255,255,0.17)" d="m848.459 328.518-3.1 2.826a3.25 3.25 0 0 0-1.011 2.017l-1.32 11.123a3.06 3.06 0 0 0 2.842 3.56h1a2.926 2.926 0 0 0 2.768-2.333l3.415-13.949a3.45 3.45 0 0 0-.029-1.747 2.774 2.774 0 0 0-4.565-1.497Z" data-name="Tracé 98835" transform="translate(-197.244 -117.793)"/><path id="Tracé_101621" fill="rgba(255,255,255,0.17)" d="m846.524 328.189-2 1.547a1.7 1.7 0 0 0-.652 1.1l-.852 6.09a1.772 1.772 0 0 0 1.833 1.949h.646a1.83 1.83 0 0 0 1.786-1.277l2.2-7.638a1.6 1.6 0 0 0-.018-.957 1.9 1.9 0 0 0-2.943-.814Z" data-name="Tracé 101621" transform="translate(-580.244 -75.793)"/><path id="Tracé_98836" fill="rgba(255,255,255,0.17)" d="m848.459 328.518-3.1 2.826a3.25 3.25 0 0 0-1.011 2.017l-1.32 11.123a3.06 3.06 0 0 0 2.842 3.56h1a2.926 2.926 0 0 0 2.768-2.333l3.415-13.949a3.45 3.45 0 0 0-.029-1.747 2.774 2.774 0 0 0-4.565-1.497Z" data-name="Tracé 98836" transform="translate(-754.784 -117.793)"/><path id="Tracé_98837" fill="rgba(255,255,255,0.17)" d="m925.893 317.581-.122.1c-1.7 1.375-1.029 4.325 1.059 4.658l18.107 2.893a1.74 1.74 0 0 0 1.772-.535 2.1 2.1 0 0 0-1.005-3.448Z" data-name="Tracé 98837" transform="translate(-185.689 -119.263)"/><path id="Tracé_98838" fill="rgba(255,255,255,0.17)" d="m925.893 317.581-.122.1c-1.7 1.375-1.029 4.325 1.059 4.658l18.107 2.893a1.74 1.74 0 0 0 1.772-.535 2.1 2.1 0 0 0-1.005-3.448Z" data-name="Tracé 98838" transform="translate(-743.229 -119.263)"/><path id="Tracé_98839" fill="rgba(255,255,255,0.17)" d="m927.966 309.625 1.186 4.415a2.5 2.5 0 0 0 1.88 1.854l6.51 1.3a2.37 2.37 0 0 0 2.651-1.588l2.415-6.383a2.9 2.9 0 0 0 .171-1.295l-.579-6.028a2.72 2.72 0 0 0-.9-1.8 2.23 2.23 0 0 0-2.786-.151l-9.532 6.7a2.78 2.78 0 0 0-1.016 2.976Z" data-name="Tracé 98839" transform="translate(-185.256 -121.862)"/><path id="Tracé_98840" fill="rgba(255,255,255,0.17)" d="m927.966 309.625 1.186 4.415a2.5 2.5 0 0 0 1.88 1.854l6.51 1.3a2.37 2.37 0 0 0 2.651-1.588l2.415-6.383a2.9 2.9 0 0 0 .171-1.295l-.579-6.028a2.72 2.72 0 0 0-.9-1.8 2.23 2.23 0 0 0-2.786-.151l-9.532 6.7a2.78 2.78 0 0 0-1.016 2.976Z" data-name="Tracé 98840" transform="translate(-742.797 -121.862)"/><path id="Tracé_98841" fill="rgba(255,255,255,0.17)" d="m941.793 319.141-.744-3.7a4.1 4.1 0 0 1 .14-2.137l1.33-3.857a3.46 3.46 0 0 1 2.924-2.409l4.1-.35-.12 1.646-.84.276a3.833 3.833 0 0 0-2.25 4.807l.064.2a3.926 3.926 0 0 1-1.522 4.463l-.767-2.875-1.3.466.468 3.122Z" data-name="Tracé 98841" transform="translate(-183.405 -120.831)"/><path id="Tracé_98842" fill="rgba(255,255,255,0.17)" d="m941.793 319.141-.744-3.7a4.1 4.1 0 0 1 .14-2.137l1.33-3.857a3.46 3.46 0 0 1 2.924-2.409l4.1-.35-.12 1.646-.84.276a3.833 3.833 0 0 0-2.25 4.807l.064.2a3.926 3.926 0 0 1-1.522 4.463l-.767-2.875-1.3.466.468 3.122Z" data-name="Tracé 98842" transform="translate(-740.945 -120.831)"/><path id="Tracé_98843" fill="rgba(255,255,255,0.17)" d="m956.547 310.388 2.833 4.6a1.86 1.86 0 0 0 .761.7l8.377 4.107-1.565 2.364 6.329 1.886a1.66 1.66 0 0 0 1.125-.064l2.11-.9a1.68 1.68 0 0 1 1.677.216l3.131 2.363a1.7 1.7 0 0 0 .827.338c1.735.209 2.707-2.137 1.426-3.44l-1.648-1.676a2 2 0 0 1-.374-.536l-2.078-4.356a1.86 1.86 0 0 0-1.094-.985l-10.5-3.376a1.66 1.66 0 0 0-1.219.08l-1.126.528a1.66 1.66 0 0 1-1.545-.065L960 309.891a1.66 1.66 0 0 0-1.318-.152Z" data-name="Tracé 98843" transform="translate(-181.205 -120.402)"/><path id="Tracé_98844" fill="rgba(255,255,255,0.17)" d="m956.547 310.388 2.833 4.6a1.86 1.86 0 0 0 .761.7l8.377 4.107-1.565 2.364 6.329 1.886a1.66 1.66 0 0 0 1.125-.064l2.11-.9a1.68 1.68 0 0 1 1.677.216l3.131 2.363a1.7 1.7 0 0 0 .827.338c1.735.209 2.707-2.137 1.426-3.44l-1.648-1.676a2 2 0 0 1-.374-.536l-2.078-4.356a1.86 1.86 0 0 0-1.094-.985l-10.5-3.376a1.66 1.66 0 0 0-1.219.08l-1.126.528a1.66 1.66 0 0 1-1.545-.065L960 309.891a1.66 1.66 0 0 0-1.318-.152Z" data-name="Tracé 98844" transform="translate(-738.745 -120.402)"/><path id="Tracé_98845" fill="rgba(255,255,255,0.17)" d="m942.436 283.007-.778 5.147a2.1 2.1 0 0 0 .144 1.14l5.473 12.751a1.76 1.76 0 0 0 1.5 1.105 1.84 1.84 0 0 0 1.849-1.929v-7.241a2.06 2.06 0 0 0-.34-1.143l-4.106-6.152a2.08 2.08 0 0 1-.325-1.4l.215-1.791a1.975 1.975 0 0 0-1-2.006l-1.868-.952-.681 2.147a2 2 0 0 0-.083.324Z" data-name="Tracé 98845" transform="translate(-183.311 -124.596)"/><path id="Tracé_98846" fill="rgba(255,255,255,0.17)" d="m942.436 283.007-.778 5.147a2.1 2.1 0 0 0 .144 1.14l5.473 12.751a1.76 1.76 0 0 0 1.5 1.105 1.84 1.84 0 0 0 1.849-1.929v-7.241a2.06 2.06 0 0 0-.34-1.143l-4.106-6.152a2.08 2.08 0 0 1-.325-1.4l.215-1.791a1.975 1.975 0 0 0-1-2.006l-1.868-.952-.681 2.147a2 2 0 0 0-.083.324Z" data-name="Tracé 98846" transform="translate(-740.852 -124.596)"/><path id="Tracé_98847" fill="rgba(255,255,255,0.17)" d="m960.489 326.008-3.4 3.685a1.8 1.8 0 0 1-2.121.432 1.8 1.8 0 0 0-2.135.446l-6.994 7.744a1.9 1.9 0 0 1-.8.531l-3.823 1.29c-4.379 1.478-7.086 6.291-6.334 11.258l.67 4.422c.867 5.723 5.951 9.452 11.09 8.136l12.649-3.24a1.79 1.79 0 0 1 1.578.358l6.369 5.173 7.866 6.694a8.48 8.48 0 0 0 8.6 1.542l1.321-.507a9.65 9.65 0 0 0 5.645-6.252l4.5-14.544a2.28 2.28 0 0 0-.37-2.068l-11.3-14.29a2 2 0 0 1-.189-.284l-3.924-7.046a1.871 1.871 0 0 0-3.518.659l-.55 2.812a1.882 1.882 0 0 1-2.952 1.31l-4.041-2.985a2.17 2.17 0 0 1-.847-1.635l-.067-1.3a2.07 2.07 0 0 0-1.471-1.936l-3.652-.961a1.81 1.81 0 0 0-1.8.556Z" data-name="Tracé 98847" transform="translate(-184.282 -118.137)"/><path id="Tracé_98848" fill="rgba(255,255,255,0.17)" d="m960.489 326.008-3.4 3.685a1.8 1.8 0 0 1-2.121.432 1.8 1.8 0 0 0-2.135.446l-6.994 7.744a1.9 1.9 0 0 1-.8.531l-3.823 1.29c-4.379 1.478-7.086 6.291-6.334 11.258l.67 4.422c.867 5.723 5.951 9.452 11.09 8.136l12.649-3.24a1.79 1.79 0 0 1 1.578.358l6.369 5.173 7.866 6.694a8.48 8.48 0 0 0 8.6 1.542l1.321-.507a9.65 9.65 0 0 0 5.645-6.252l4.5-14.544a2.28 2.28 0 0 0-.37-2.068l-11.3-14.29a2 2 0 0 1-.189-.284l-3.924-7.046a1.871 1.871 0 0 0-3.518.659l-.55 2.812a1.882 1.882 0 0 1-2.952 1.31l-4.041-2.985a2.17 2.17 0 0 1-.847-1.635l-.067-1.3a2.07 2.07 0 0 0-1.471-1.936l-3.652-.961a1.81 1.81 0 0 0-1.8.556Z" data-name="Tracé 98848" transform="translate(-741.823 -118.137)"/><path id="Tracé_98849" fill="rgba(255,255,255,0.17)" d="M956.271 265.652a1.687 1.687 0 0 0 2.468 1.2l12.852-7.412a1.83 1.83 0 0 0 .738-.826l6.9-15.073.65-13.9c.184-3.935-3.993-6.213-6.731-3.67l1.4 11.065a9.9 9.9 0 0 1-1.086 5.933l-7.935 14.689a1.8 1.8 0 0 1-.589.653l-7.892 5.245a1.98 1.98 0 0 0-.775 2.096Z" data-name="Tracé 98849" transform="translate(-181.251 -132.608)"/><path id="Tracé_98850" fill="rgba(255,255,255,0.17)" d="M956.271 265.652a1.687 1.687 0 0 0 2.468 1.2l12.852-7.412a1.83 1.83 0 0 0 .738-.826l6.9-15.073.65-13.9c.184-3.935-3.993-6.213-6.731-3.67l1.4 11.065a9.9 9.9 0 0 1-1.086 5.933l-7.935 14.689a1.8 1.8 0 0 1-.589.653l-7.892 5.245a1.98 1.98 0 0 0-.775 2.096Z" data-name="Tracé 98850" transform="translate(-738.792 -132.608)"/><path id="Tracé_98851" fill="rgba(255,255,255,0.17)" d="M777.168 219.827a2.04 2.04 0 0 0-1.162.629l-1.956 2.091a2.44 2.44 0 0 0-.633 1.747l.038 1a2.14 2.14 0 0 0 2.6 2.142l2.117-.58a2.294 2.294 0 0 0 1.581-2.436l-.2-2.508a2.15 2.15 0 0 0-2.385-2.085Z" data-name="Tracé 98851" transform="translate(-207.075 -133.342)"/><path id="Tracé_98852" fill="rgba(255,255,255,0.17)" d="M777.168 219.827a2.04 2.04 0 0 0-1.162.629l-1.956 2.091a2.44 2.44 0 0 0-.633 1.747l.038 1a2.14 2.14 0 0 0 2.6 2.142l2.117-.58a2.294 2.294 0 0 0 1.581-2.436l-.2-2.508a2.15 2.15 0 0 0-2.385-2.085Z" data-name="Tracé 98852" transform="translate(-764.615 -133.342)"/><path id="Tracé_98853" fill="rgba(255,255,255,0.17)" d="m780.237 213.609-1.357 2.281a2.65 2.65 0 0 0-.289 1.957l2.631 11.027a2.207 2.207 0 0 0 2.765 1.729l3.972-1.258a2.35 2.35 0 0 0 1.535-1.73l.2-.831a2.64 2.64 0 0 0-.353-2.056l-4.481-6.775a2.6 2.6 0 0 1-.42-1.264l-.123-1.916a2.29 2.29 0 0 0-2.486-2.252 2.2 2.2 0 0 0-1.594 1.088Z" data-name="Tracé 98853" transform="translate(-206.354 -134.393)"/><path id="Tracé_98854" fill="rgba(255,255,255,0.17)" d="m780.237 213.609-1.357 2.281a2.65 2.65 0 0 0-.289 1.957l2.631 11.027a2.207 2.207 0 0 0 2.765 1.729l3.972-1.258a2.35 2.35 0 0 0 1.535-1.73l.2-.831a2.64 2.64 0 0 0-.353-2.056l-4.481-6.775a2.6 2.6 0 0 1-.42-1.264l-.123-1.916a2.29 2.29 0 0 0-2.486-2.252 2.2 2.2 0 0 0-1.594 1.088Z" data-name="Tracé 98854" transform="translate(-763.894 -134.393)"/><path id="Tracé_98855" fill="rgba(255,255,255,0.17)" d="M860.882 186.734h-1.995a1.73 1.73 0 0 1-1.151-.447l-2.308-2.05a2.153 2.153 0 0 1-.238-2.879l7.824-10a1.83 1.83 0 0 1 .829-.6l5.3-1.87a2 2 0 0 1 .164-.049l8.331-2.026a1.68 1.68 0 0 1 1.1.109l1.976 1.106a1.919 1.919 0 0 1-.4 3.466l-12.66 3.093a1.87 1.87 0 0 0-.895.776l-4.037 6.671a2.19 2.19 0 0 0-.161 1.9 2 2 0 0 1-1.679 2.8Z" data-name="Tracé 98855" transform="translate(-190.075 -144.81)"/><path id="Tracé_98856" fill="rgba(255,255,255,0.17)" d="M860.882 186.734h-1.995a1.73 1.73 0 0 1-1.151-.447l-2.308-2.05a2.153 2.153 0 0 1-.238-2.879l7.824-10a1.83 1.83 0 0 1 .829-.6l5.3-1.87a2 2 0 0 1 .164-.049l8.331-2.026a1.68 1.68 0 0 1 1.1.109l1.976 1.106a1.919 1.919 0 0 1-.4 3.466l-12.66 3.093a1.87 1.87 0 0 0-.895.776l-4.037 6.671a2.19 2.19 0 0 0-.161 1.9 2 2 0 0 1-1.679 2.8Z" data-name="Tracé 98856" transform="translate(-753.126 -140.979)"/><path id="Tracé_98857" fill="rgba(255,255,255,0.17)" d="M911.54 152.833c-.85.126-1.817.224-2.516.288a1.94 1.94 0 0 0-1.493 1.006l-1.266 2.228a2.226 2.226 0 0 0 1.128 3.212l7.739 2.416a1.87 1.87 0 0 0 2.137-.833l.18-.284a2.265 2.265 0 0 0-.755-3.181l-1.811-.953a2.14 2.14 0 0 1-1.085-1.581l-.083-.543a1.99 1.99 0 0 0-2.175-1.775Z" data-name="Tracé 98857" transform="translate(-188.35 -142.987)"/><path id="Tracé_98858" fill="rgba(255,255,255,0.17)" d="M911.54 152.833c-.85.126-1.817.224-2.516.288a1.94 1.94 0 0 0-1.493 1.006l-1.266 2.228a2.226 2.226 0 0 0 1.128 3.212l7.739 2.416a1.87 1.87 0 0 0 2.137-.833l.18-.284a2.265 2.265 0 0 0-.755-3.181l-1.811-.953a2.14 2.14 0 0 1-1.085-1.581l-.083-.543a1.99 1.99 0 0 0-2.175-1.775Z" data-name="Tracé 98858" transform="translate(-745.89 -142.987)"/><path id="Tracé_98859" fill="rgba(255,255,255,0.17)" d="m917.574 160.431-.182.325a2.164 2.164 0 0 0 1.665 3.288h3.336a1.91 1.91 0 0 0 1.6-.917 2.27 2.27 0 0 0-.686-3.138l-1.244-.726a1.8 1.8 0 0 0-1.287-.214l-1.909.4a1.97 1.97 0 0 0-1.293.982Z" data-name="Tracé 98859" transform="translate(-186.778 -142.095)"/><path id="Tracé_98860" fill="rgba(255,255,255,0.17)" d="m917.574 160.431-.182.325a2.164 2.164 0 0 0 1.665 3.288h3.336a1.91 1.91 0 0 0 1.6-.917 2.27 2.27 0 0 0-.686-3.138l-1.244-.726a1.8 1.8 0 0 0-1.287-.214l-1.909.4a1.97 1.97 0 0 0-1.293.982Z" data-name="Tracé 98860" transform="translate(-744.318 -142.095)"/><path id="Tracé_98861" fill="rgba(255,255,255,0.17)" d="m965.574 172.527.1 1.328 3.4.644h16.05l.163-.463a2.484 2.484 0 0 0-1.792-3.328l-11.036-1.644-5.324 1.166a2.13 2.13 0 0 0-1.561 2.297Z" data-name="Tracé 98861" transform="translate(-179.931 -140.647)"/><path id="Tracé_98862" fill="rgba(255,255,255,0.17)" d="m965.574 172.527.1 1.328 3.4.644h16.05l.163-.463a2.484 2.484 0 0 0-1.792-3.328l-11.036-1.644-5.324 1.166a2.13 2.13 0 0 0-1.561 2.297Z" data-name="Tracé 98862" transform="translate(-737.471 -140.647)"/><path id="Tracé_98863" fill="rgba(255,255,255,0.17)" d="M736.572 216.056a793 793 0 0 0 3.966-8.716 3.33 3.33 0 0 1 1.886-1.795l5.486-1.97a1.27 1.27 0 0 0 .592-.448l3.652-4.966a1.3 1.3 0 0 1 .522-.421l11.785-5.088a3.32 3.32 0 0 0 1.833-2.154l5.9-20.46a3.69 3.69 0 0 0-.581-3.237 3.666 3.666 0 0 1 .406-4.844l5.742-5.211a3.344 3.344 0 0 0-1.209-5.631 2.7 2.7 0 0 0-1.026-.057l-5.52.764a2.76 2.76 0 0 1-2.318-.792l-1.585-1.552a2.622 2.622 0 0 0-.2-4.6l-1.272-.535a4.25 4.25 0 0 0-3.326.019 4.2 4.2 0 0 1-1.9.524l-16.473.508a5 5 0 0 0-.738.079l-32.01 5.848a5.2 5.2 0 0 0-2.15.94l-3.262 2.418a1 1 0 0 1-.123.081l-4.8 2.75a1.47 1.47 0 0 0-.189 2.339 1.443 1.443 0 0 1-.5 2.463l-5.66 1.378a1.442 1.442 0 0 0-.639 2.327l6.208 7.089a1.23 1.23 0 0 0 .741.413l12.839 1.945a1.29 1.29 0 0 1 .974.788l5.578 13.062a1.4 1.4 0 0 0 .231.372l2.493 2.862a3.784 3.784 0 0 1-.226 5.13 3.785 3.785 0 0 0-.815 4.186l5.265 12.34a3.35 3.35 0 0 0 1.885 1.85l4.65 1.726a3.1 3.1 0 0 0 3.888-1.724Z" data-name="Tracé 98863" transform="translate(-193.529 -143.81)"/><path id="Tracé_98864" fill="rgba(255,255,255,0.17)" d="m703.816 207.279 3.328.357a2.74 2.74 0 0 1 1.275.48l4.1 2.859a3.14 3.14 0 0 1 1.134 1.491l.211.567a2.79 2.79 0 0 0 4.493 1.3 2.724 2.724 0 0 1 4 .42l11.075 14.143a3.4 3.4 0 0 1 .651 1.471 3.25 3.25 0 0 1-1.961 3.664l-4.362 1.554a4.5 4.5 0 0 1-.728.2l-4.175.763a2.26 2.26 0 0 0-1.768 2.017l-.271 2.322a2.35 2.35 0 0 0 1.591 2.575 2.432 2.432 0 0 1 .462 4.356l-2.223 1.277a1.96 1.96 0 0 1-1.593.171l-.934-.3a3.53 3.53 0 0 0-4.136 1.676l-1.6 2.7a4 4 0 0 1-.645.821l-6.316 6.151a4.22 4.22 0 0 0-1.239 2.86 4.28 4.28 0 0 1-.948 2.542l-4.789 5.826a8.96 8.96 0 0 0-1.973 6.038l.985 1.167c1.644 1.948-.647 4.85-2.633 3.336a8.5 8.5 0 0 1-1.428-2.19l-.508-1.125a4.43 4.43 0 0 0-4.625-2.709l-11.34 1.636a4.764 4.764 0 0 0-3.894 4.346l-.687 6.522a3.55 3.55 0 0 0 1.543 3.373l4.112 2.608a2.013 2.013 0 0 0 2.784-.638l.913-1.359a2.09 2.09 0 0 1 1.625-.951l1.108-.051a2.3 2.3 0 0 1 2.146 2.978l-.915 3.583a2.343 2.343 0 0 0 1.807 2.964l3.054.392a2.28 2.28 0 0 1 1.885 2.351l-.025 3.308a2.46 2.46 0 0 0 .678 1.735l2.079 2.135a1.99 1.99 0 0 0 2.406.387 1.96 1.96 0 0 1 1.66-.111l3.4 1.325 3.405-3.027a9.59 9.59 0 0 1 8.189-2.342l7.693 1.457a9.87 9.87 0 0 1 4.755 2.386l6.6 5.941a5.73 5.73 0 0 1 4.186 1.84l5.185 5.471a6 6 0 0 0 1.843 1.329l12.68 5.823a6 6 0 0 1 .561.3l3.9 2.342a6.95 6.95 0 0 1 2.375 9l-4.055 8.034a7 7 0 0 0-.668 2.089l-1.044 6.7a6.53 6.53 0 0 1-3.525 4.942l-5.346 2.552a6.56 6.56 0 0 0-3.557 5.163l-.289 2.326a6.87 6.87 0 0 1-1.671 3.74l-7.047 7.868-3.238.9a2.31 2.31 0 0 0-1.584 2.452 2.36 2.36 0 0 1-1.253 2.322l-4.829 2.289a2.2 2.2 0 0 0-.961.915l-3.064 5.479a2.3 2.3 0 0 0-.186.424l-6.812 20.666a2.49 2.49 0 0 0 .448 2.381l.88 1.027a2.406 2.406 0 0 1-1.018 3.839l-1.968.547a1.98 1.98 0 0 1-1.923-.519l-5.843-5.743a2.44 2.44 0 0 1-.7-1.833l.857-21.14a2 2 0 0 1 .026-.275l6.053-40.363a3.33 3.33 0 0 0-1.543-3.392l-6.142-3.513a3.1 3.1 0 0 1-1.23-1.331l-7.093-14.439a3.52 3.52 0 0 1-.148-2.72l6.093-17-2.059-2.345a2 2 0 0 0-2.354-.536l-.92.421A1.99 1.99 0 0 1 694 314.6l-8.082-8.192a2.2 2.2 0 0 0-.406-.324l-8.634-5.3a2.89 2.89 0 0 0-3.175.082 2.89 2.89 0 0 1-3.2.065l-11.129-7a3.3 3.3 0 0 1-1.126-1.21l-10.807-19.727-3.295 2.225s-13.091-17.37-12.725-18.923c.269-1.145-.45-10.1-.847-14.725a7.4 7.4 0 0 0-2.09-4.6l-20.262-20.286a9.08 9.08 0 0 0-7.542-2.693l-11.536 1.408a3.3 3.3 0 0 0-1.348.482l-6.378 3.989a3.357 3.357 0 0 1-4.834-1.534c-.506-1.04-.838-1.934-.529-2.013.437-.112-1.624-2.219-3.469-4a4.134 4.134 0 0 1-.338-5.424 2.21 2.21 0 0 0 .235-2.3l-.988-2.045a1.94 1.94 0 0 0-.911-.921l-.752-.355a2.137 2.137 0 0 1-.083-3.721 2.15 2.15 0 0 0 .735-2.972l-1.018-1.687a2.146 2.146 0 0 1 .8-3.006l12.62-6.1a1.7 1.7 0 0 1 1.051-.146l29.386 5.308a13.1 13.1 0 0 0 8-1.088 13.1 13.1 0 0 1 8.91-.891l22.344 5.683a7.25 7.25 0 0 0 5-.529l.209-.1a7.27 7.27 0 0 1 4.127-.7l6.107.776a7.3 7.3 0 0 0 4.433-.855l3.65-2-1.057-1.224a3.2 3.2 0 0 1 .4-4.519 2.573 2.573 0 0 1 3.743.605l3.367 4.764a4.15 4.15 0 0 0 5.808 1.146l.691-.47a2.32 2.32 0 0 1 2.23-.229l2.1.892a2.886 2.886 0 0 1 1.177 4.126l-2.52 4.1a2.84 2.84 0 0 1-1.275 4.558l-6.506 1.583a2.5 2.5 0 0 0-1.566 1.2l-4.468 7.707a2.863 2.863 0 0 0 1.2 4.036l16.65 7.08a2.042 2.042 0 0 0 2.749-1.976l.286-7.149 1.638-5.956a2.92 2.92 0 0 1 3.066-2.246Z" data-name="Tracé 98864" transform="translate(-238.771 -138.646)"/><path id="Tracé_98865" fill="rgba(255,255,255,0.17)" d="M680.72 274.223a3.24 3.24 0 0 1 1.655.279l18.006 8.176-.838.628a3.3 3.3 0 0 1-2.1.671l-8.082-.281a3.49 3.49 0 0 1-2.94-1.929l-.614-1.163a3.64 3.64 0 0 0-1.8-1.679l-4.749-1.981a3 3 0 0 1-.325-.157Z" data-name="Tracé 98865" transform="translate(-223.198 -125.508)"/><path id="Tracé_98866" fill="rgba(255,255,255,0.17)" d="M622.882 177.054a4.95 4.95 0 0 0 1.267 4.576l.366.364a4.04 4.04 0 0 0 2.561 1.191l3.112.223a4.08 4.08 0 0 1 2.791 1.437l3.7 4.285a4.06 4.06 0 0 0 3.067 1.447h10.982a3.9 3.9 0 0 0 1.52-.311l1.743-.738a4.858 4.858 0 0 0 1.874-7.109l-2.95-4.365a4 4 0 0 0-5.088-1.487l-2.319 1.115a3.88 3.88 0 0 1-3.351.017l-8.251-3.864a3.9 3.9 0 0 0-1.708-.372l-5.266.071a4.33 4.33 0 0 0-4.05 3.52Z" data-name="Tracé 98866" transform="translate(-231.135 -140.014)"/><path id="Tracé_98867" fill="rgba(255,255,255,0.17)" d="m670.506 177.041-1.4 4.288a2.38 2.38 0 0 0 .786 2.633l4.757 3.509a1.93 1.93 0 0 0 1.043.379l10.032.532a1.95 1.95 0 0 1 1.232.538l5.386 5.059a2.388 2.388 0 0 1-.233 3.615l-3.539 2.473a2.39 2.39 0 0 0-.292 3.555l.895.911a1.91 1.91 0 0 0 2.031.487l2.411-.869a1.88 1.88 0 0 1 1.519.105l8.267 4.32a2.025 2.025 0 0 0 2.889-1.588l.235-1.277a2.44 2.44 0 0 0-.34-1.757 2.4 2.4 0 0 1 .473-3.138l2.734-2.162a2.392 2.392 0 0 0 .1-3.572l-5.733-5.167a2.2 2.2 0 0 1-.349-.4l-3.193-4.752a2.2 2.2 0 0 0-.528-.548l-11.566-8.295a1.9 1.9 0 0 0-1.12-.366h-14.568a2.07 2.07 0 0 0-1.929 1.487Z" data-name="Tracé 98867" transform="translate(-224.604 -139.714)"/><path id="Tracé_98868" fill="rgba(255,255,255,0.17)" d="m707.621 155.038-14.593 9.949a5.5 5.5 0 0 0-2.188 3.2l-1.034 4.067a5.14 5.14 0 0 1-4.607 4.026l-10.427.514a4.95 4.95 0 0 0-4.008 2.549 4.83 4.83 0 0 1-5.283 2.431l-4.968-1.169a4.98 4.98 0 0 1-2.913-2.012l-1.074-1.521a4.78 4.78 0 0 0-5.045-2l-10.178 2.47a4.6 4.6 0 0 1-3.142-.357l-1.681-.832c-3.913-1.937-3.951-8.033-.061-10.028l5.5-2.821a4.7 4.7 0 0 1 1.346-.451l12.394-2.132a4.7 4.7 0 0 0 1.722-.666l10.251-6.47a4.8 4.8 0 0 1 1.325-.58l33.372-8.825a4.58 4.58 0 0 1 2.939.2l1.474.61c3.898 1.61 4.418 7.435.879 9.848Z" data-name="Tracé 98868" transform="translate(-229.614 -144.224)"/></g></g></g><g id="vols" transform="translate(285.74 601.054)"><path id="Tracé_98811" fill="#f6f6f6" d="M886.211 217.85a10.963 10.963 0 1 1-15.371-2.025 10.96 10.96 0 0 1 15.371 2.025" data-name="Tracé 98811" transform="translate(-761.449 -58.873)"/><ellipse id="Ellipse_54" cx="3.275" cy="3.305" fill="#fff" data-name="Ellipse 54" rx="3.275" ry="3.305" transform="translate(156.31 76.538)"/><ellipse id="Ellipse_622" cx="3.275" cy="3.305" fill="#fff" data-name="Ellipse 622" rx="3.275" ry="3.305" transform="translate(78.38 90.52)"/><ellipse id="Ellipse_623" cx="3.275" cy="3.305" fill="#fff" data-name="Ellipse 623" rx="3.275" ry="3.305" transform="translate(1.894 63.666)"/><ellipse id="Ellipse_625" cx="3.273" cy="3.324" fill="#fff" data-name="Ellipse 625" rx="3.273" ry="3.324" transform="translate(39.074 192.475)"/><ellipse id="Ellipse_616" cx="3.273" cy="3.307" fill="#fff" data-name="Ellipse 616" rx="3.273" ry="3.307" transform="translate(348.262 59.137)"/><path id="Tracé_98829" fill="none" stroke="#f6f6f6" stroke-dasharray="3" stroke-width="2" d="M39.624 0C55.086 33.42 29.233 76.559.947 81.692" data-name="Tracé 98829" transform="rotate(185 80.23 77.545)"/><path id="Tracé_101619" fill="none" stroke="#f6f6f6" stroke-dasharray="3" stroke-width="2" d="M39.624 0c41.148 20.846 36.4 46.859 37.985 59.268" data-name="Tracé 101619" transform="rotate(185 80.23 77.545)"/><path id="Tracé_101648" fill="#4698cb" d="M875.466 215.505a4.972 4.972 0 1 1-6.972-.918 4.97 4.97 0 0 1 6.972.918" data-name="Tracé 101648" transform="translate(-755.457 -52.881)"/><path id="airplane-mode" fill="#fff" d="M.278 14.438a.65.65 0 0 0 .6.08l7.289-2.624v3.954l-1.728 1.438a.65.65 0 0 0-.234.5v1.041a.653.653 0 0 0 .841.626l2.754-.825 2.751.826a.652.652 0 0 0 .841-.626v-1.041a.65.65 0 0 0-.235-.5l-1.724-1.437v-3.956l7.289 2.624a.653.653 0 0 0 .875-.614v-1.643a.65.65 0 0 0-.3-.55l-7.868-5.032V1.633A1.63 1.63 0 0 0 9.638.008a1.675 1.675 0 0 0-1.474 1.681v4.99L.3 11.711a.65.65 0 0 0-.3.55c0 1.855.1 2.055.278 2.177" transform="rotate(-90 132.885 .855)"/></g></g><g id="Groupe_23772" data-name="Groupe 23772" transform="translate(-190 -555.524)"><g id="vols-2" data-name="vols" transform="translate(285.74 601.054)"><ellipse id="Ellipse_54-2" cx="3.275" cy="3.305" fill="#fff" data-name="Ellipse 54" rx="3.275" ry="3.305" transform="translate(156.31 76.538)"/><path id="Tracé_98830" fill="none" stroke="#f6f6f6" stroke-dasharray="3" stroke-width="2" d="M59.574-17C92.953 37.044 33.94 146.835 0 158.556" data-name="Tracé 98830" transform="rotate(246 141.767 -2.593)"/><path id="Tracé_101620" fill="none" stroke="#f6f6f6" stroke-dasharray="3" stroke-width="2" d="M41.274-2.2c34.643 3.846 77.983 21.185 115.072 83.69" data-name="Tracé 101620" transform="rotate(185 80.23 77.545)"/><path id="Tracé_101622" fill="none" stroke="#f6f6f6" stroke-dasharray="3" stroke-width="2" d="M99.893-3.488S64.39 22.524 27.945-4.2" data-name="Tracé 101622" transform="rotate(-21 574.57 52.928)"/></g></g></svg>